<svg width="500" height="500" viewBox="0 0 500 500" fill="none" xmlns="http://www.w3.org/2000/svg" preserveAspectRatio="xMidYMid meet">
<rect width="500" height="500" fill="white"/>
<ellipse cx="251" cy="262.5" rx="135" ry="134.5" fill="#FCBE5B"/>
<path fill-rule="evenodd" clip-rule="evenodd" d="M232 384C307.663 384 369 322.663 369 247C369 210.982 355.1 178.21 332.372 153.756C309.843 136.976 281.913 127.046 251.662 127.046C176.963 127.046 116.407 187.602 116.407 262.301C116.407 304.676 135.893 342.5 166.394 367.3C185.878 377.947 208.232 384 232 384Z" fill="#F9B535"/>
<path d="M175.344 296.867C175.215 296.867 175.11 296.971 175.11 297.1V297.1C175.11 327.977 200.141 353.008 231.019 353.008C261.896 353.008 286.927 327.977 286.927 297.1C286.927 297.022 286.927 296.945 286.926 296.867H175.344Z" fill="#82174A"/>
<path fill-rule="evenodd" clip-rule="evenodd" d="M275.045 331.562C267.694 326.712 258.887 323.889 249.422 323.889C231.733 323.889 216.346 333.747 208.456 348.269C215.357 351.316 222.99 353.008 231.019 353.008C248.894 353.008 264.811 344.619 275.045 331.562Z" fill="#D04551"/>
<path fill-rule="evenodd" clip-rule="evenodd" d="M189.34 296.867C189.327 297.137 189.32 297.409 189.32 297.682C189.32 306.752 196.673 314.105 205.743 314.105H256.061C265.131 314.105 272.484 306.752 272.484 297.682C272.484 297.409 272.477 297.137 272.464 296.867H189.34Z" fill="#FCFEFB"/>
<path d="M327.108 268.768C327.232 269.87 326.324 270.776 325.215 270.776H291.735C290.625 270.776 289.717 269.87 289.841 268.768C290.896 259.412 298.836 252.14 308.475 252.14C318.113 252.14 326.053 259.412 327.108 268.768Z" fill="#CD4551"/>
<path d="M131.668 266.672C131.543 267.774 132.452 268.68 133.561 268.68H167.041C168.15 268.68 169.059 267.774 168.935 266.672C167.879 257.315 159.939 250.044 150.301 250.044C140.663 250.044 132.723 257.315 131.668 266.672Z" fill="#CD4551"/>
<path d="M205 219.729C205 220.445 204.971 221.154 204.914 221.854C204.715 224.317 202.503 226 200.033 226V226C197.063 226 194.656 223.593 194.656 220.623V220.439C194.656 212.793 188.766 206.595 181.5 206.595C174.234 206.595 168.344 212.793 168.344 220.439V220.623C168.344 223.593 165.937 226 162.967 226V226C160.497 226 158.285 224.317 158.086 221.854C158.029 221.154 158 220.445 158 219.729C158 206.072 168.521 195 181.5 195C194.479 195 205 206.072 205 219.729Z" fill="#3A0E4B"/>
<path d="M298 219.931C298 220.561 297.976 221.185 297.928 221.802C297.734 224.306 295.47 226 292.959 226H292.817C289.845 226 287.435 223.591 287.435 220.618V220.618C287.435 213.219 281.42 207.221 274 207.221C266.58 207.221 260.565 213.219 260.565 220.618V220.618C260.565 223.591 258.155 226 255.183 226H255.041C252.53 226 250.266 224.306 250.072 221.802C250.024 221.185 250 220.561 250 219.931C250 206.714 260.745 196 274 196C287.255 196 298 206.714 298 219.931Z" fill="#3A0E4B"/>
<path d="M164.582 166.616C176.677 160.762 191.91 154.453 201.393 154.453C219.081 154.453 226.357 170.847 241.424 167.533C250.219 160.058 246.079 150.248 270.284 151.182C289.558 151.926 320.046 186.139 331.669 200.05C334.749 203.736 339.055 206.183 343.819 206.796C350.427 207.646 356.045 212.034 358.469 218.24L361.244 225.342C362.813 229.357 366.684 232 370.995 232C376.982 232 381.711 226.995 381.036 221.046C379.649 208.816 376.438 189.082 369.432 176.409C352.381 145.566 329.062 135.231 295.42 125.022C266.871 116.358 249.337 110.54 219.081 122.686C188.824 134.832 191.617 131.095 198.6 104C172.533 109.139 166.947 144.175 166.947 144.175L157.45 158.789C154.58 163.205 159.842 168.911 164.582 166.616Z" fill="#8E681E"/>
</svg>
